<svg width="16" height="12" viewBox="0 0 16 12" fill="none" xmlns="http://www.w3.org/2000/svg">
<g id="Retweet Stroke Icon">
<path d="M3.89979 0.93462C3.64956 0.68846 3.24554 0.68846 2.99532 0.934621L0.96805 2.92898C0.677317 3.215 0.677317 3.68044 0.96805 3.96645C1.25651 4.25023 1.72252 4.25023 2.01097 3.96645L2.70804 3.2807V8.456C2.70804 9.92771 3.91965 11.1138 5.40559 11.1138H8.53846C8.94301 11.1138 9.27797 10.7901 9.27797 10.3823C9.27797 9.97438 8.94301 9.65069 8.53846 9.65069H5.40559C4.72875 9.65069 4.18706 9.11197 4.18706 8.456V3.2807L4.88413 3.96645C5.17259 4.25023 5.6386 4.25023 5.92705 3.96645C6.21779 3.68044 6.21779 3.215 5.92705 2.92898L3.89979 0.93462Z" fill="#687684"/>
<path d="M7.46154 0.886178C7.05699 0.886178 6.72203 1.20987 6.72203 1.61774C6.72203 2.02562 7.05699 2.34931 7.46154 2.34931H10.5944C11.2713 2.34931 11.8129 2.88803 11.8129 3.544V8.7193L11.1159 8.03355C10.8274 7.74977 10.3614 7.74977 10.0729 8.03355C9.78221 8.31956 9.78221 8.785 10.0729 9.07102L12.1002 11.0654C12.3504 11.3115 12.7545 11.3115 13.0047 11.0654L15.0319 9.07102C15.3227 8.785 15.3227 8.31956 15.0319 8.03355C14.7435 7.74977 14.2775 7.74977 13.989 8.03355L13.292 8.7193V3.544C13.292 2.07229 12.0803 0.886178 10.5944 0.886178H7.46154Z" fill="#687684"/>
</g>
</svg>
